<mxfile host="app.diagrams.net" agent="Mozilla/5.0 (Windows NT 10.0; Win64; x64) AppleWebKit/537.36 (KHTML, like Gecko) Chrome/139.0.0.0 Safari/537.36" version="28.1.1">
  <diagram name="Page-1" id="fEl8KB214N2eqmUYsXLJ">
    <mxGraphModel dx="2276" dy="1911" grid="1" gridSize="10" guides="1" tooltips="1" connect="1" arrows="1" fold="1" page="1" pageScale="1" pageWidth="850" pageHeight="1100" math="0" shadow="0">
      <root>
        <mxCell id="0" />
        <mxCell id="1" parent="0" />
        <mxCell id="rkgvcaDkyT0_1fbHDYlR-10" style="edgeStyle=orthogonalEdgeStyle;rounded=0;orthogonalLoop=1;jettySize=auto;html=1;entryX=0.5;entryY=0;entryDx=0;entryDy=0;labelBackgroundColor=none;strokeColor=#788AA3;fontColor=default;startArrow=none;startFill=0;exitX=0.5;exitY=1;exitDx=0;exitDy=0;" edge="1" parent="1" source="rkgvcaDkyT0_1fbHDYlR-75" target="rkgvcaDkyT0_1fbHDYlR-2">
          <mxGeometry relative="1" as="geometry" />
        </mxCell>
        <mxCell id="rkgvcaDkyT0_1fbHDYlR-76" style="edgeStyle=orthogonalEdgeStyle;rounded=0;orthogonalLoop=1;jettySize=auto;html=1;entryX=0.5;entryY=0;entryDx=0;entryDy=0;strokeColor=#788AA3;fontColor=#46495D;fillColor=#B2C9AB;startArrow=classic;startFill=1;" edge="1" parent="1" source="rkgvcaDkyT0_1fbHDYlR-1" target="rkgvcaDkyT0_1fbHDYlR-75">
          <mxGeometry relative="1" as="geometry" />
        </mxCell>
        <mxCell id="rkgvcaDkyT0_1fbHDYlR-1" value="Customer App" style="rounded=0;whiteSpace=wrap;html=1;labelBackgroundColor=none;fillColor=#B2C9AB;strokeColor=#788AA3;fontColor=#46495D;" vertex="1" parent="1">
          <mxGeometry x="90" y="-90" width="120" height="60" as="geometry" />
        </mxCell>
        <mxCell id="rkgvcaDkyT0_1fbHDYlR-44" style="edgeStyle=orthogonalEdgeStyle;rounded=0;orthogonalLoop=1;jettySize=auto;html=1;exitX=0.5;exitY=1;exitDx=0;exitDy=0;entryX=0.5;entryY=0;entryDx=0;entryDy=0;entryPerimeter=0;labelBackgroundColor=none;strokeColor=#788AA3;fontColor=default;startArrow=classic;startFill=1;" edge="1" parent="1" source="rkgvcaDkyT0_1fbHDYlR-2" target="rkgvcaDkyT0_1fbHDYlR-49">
          <mxGeometry relative="1" as="geometry">
            <mxPoint x="150" y="350" as="targetPoint" />
          </mxGeometry>
        </mxCell>
        <mxCell id="rkgvcaDkyT0_1fbHDYlR-2" value="Catalog Service&lt;div&gt;&lt;br&gt;&lt;/div&gt;&lt;div&gt;(Check for flash sale window)&lt;/div&gt;" style="rounded=0;whiteSpace=wrap;html=1;labelBackgroundColor=none;fillColor=#B2C9AB;strokeColor=#788AA3;fontColor=#46495D;" vertex="1" parent="1">
          <mxGeometry x="70" y="170" width="160" height="80" as="geometry" />
        </mxCell>
        <mxCell id="rkgvcaDkyT0_1fbHDYlR-84" style="edgeStyle=orthogonalEdgeStyle;rounded=0;orthogonalLoop=1;jettySize=auto;html=1;exitX=0;exitY=0.25;exitDx=0;exitDy=0;entryX=0;entryY=0.75;entryDx=0;entryDy=0;strokeColor=#788AA3;fontColor=#46495D;fillColor=#B2C9AB;startArrow=classic;startFill=1;endArrow=none;endFill=0;" edge="1" parent="1" source="rkgvcaDkyT0_1fbHDYlR-3" target="rkgvcaDkyT0_1fbHDYlR-75">
          <mxGeometry relative="1" as="geometry" />
        </mxCell>
        <mxCell id="rkgvcaDkyT0_1fbHDYlR-3" value="Order Service&lt;div&gt;&lt;br&gt;&lt;div&gt;(Cancel&#39;s order if not received in 24Hrs)&lt;/div&gt;&lt;/div&gt;" style="rounded=0;whiteSpace=wrap;html=1;labelBackgroundColor=none;fillColor=#B2C9AB;strokeColor=#788AA3;fontColor=#46495D;" vertex="1" parent="1">
          <mxGeometry x="60" y="590" width="180" height="90" as="geometry" />
        </mxCell>
        <mxCell id="rkgvcaDkyT0_1fbHDYlR-51" style="edgeStyle=orthogonalEdgeStyle;rounded=0;orthogonalLoop=1;jettySize=auto;html=1;entryX=0.5;entryY=0;entryDx=0;entryDy=0;labelBackgroundColor=none;strokeColor=#788AA3;fontColor=default;startArrow=none;startFill=0;" edge="1" parent="1" source="rkgvcaDkyT0_1fbHDYlR-4" target="rkgvcaDkyT0_1fbHDYlR-6">
          <mxGeometry relative="1" as="geometry" />
        </mxCell>
        <mxCell id="rkgvcaDkyT0_1fbHDYlR-58" style="edgeStyle=orthogonalEdgeStyle;rounded=0;orthogonalLoop=1;jettySize=auto;html=1;strokeColor=#788AA3;fontColor=#46495D;fillColor=#B2C9AB;startArrow=classic;startFill=1;endArrow=none;endFill=0;" edge="1" parent="1" source="rkgvcaDkyT0_1fbHDYlR-4" target="rkgvcaDkyT0_1fbHDYlR-3">
          <mxGeometry relative="1" as="geometry" />
        </mxCell>
        <mxCell id="rkgvcaDkyT0_1fbHDYlR-4" value="Inventory Service&lt;div&gt;&lt;br&gt;&lt;div&gt;(&lt;span style=&quot;background-color: transparent; color: light-dark(rgb(0, 0, 0), rgb(255, 255, 255));&quot;&gt;Auto-release reservations &amp;gt;10 mins old without &lt;/span&gt;&lt;code style=&quot;background-color: transparent; color: light-dark(rgb(0, 0, 0), rgb(255, 255, 255));&quot; data-end=&quot;4426&quot; data-start=&quot;4409&quot;&gt;Payment&lt;/code&gt;&lt;span style=&quot;background-color: transparent; color: light-dark(rgb(0, 0, 0), rgb(255, 255, 255));&quot;&gt;Captured)&lt;/span&gt;&lt;/div&gt;&lt;/div&gt;" style="rounded=0;whiteSpace=wrap;html=1;labelBackgroundColor=none;fillColor=#B2C9AB;strokeColor=#788AA3;fontColor=#46495D;" vertex="1" parent="1">
          <mxGeometry x="-210" y="590" width="190" height="90" as="geometry" />
        </mxCell>
        <mxCell id="rkgvcaDkyT0_1fbHDYlR-56" style="edgeStyle=orthogonalEdgeStyle;rounded=0;orthogonalLoop=1;jettySize=auto;html=1;entryX=0.5;entryY=0;entryDx=0;entryDy=0;strokeColor=#788AA3;fontColor=#46495D;fillColor=#B2C9AB;startArrow=none;startFill=0;" edge="1" parent="1" source="rkgvcaDkyT0_1fbHDYlR-5" target="rkgvcaDkyT0_1fbHDYlR-7">
          <mxGeometry relative="1" as="geometry" />
        </mxCell>
        <mxCell id="rkgvcaDkyT0_1fbHDYlR-5" value="Payment Service" style="rounded=0;whiteSpace=wrap;html=1;labelBackgroundColor=none;fillColor=#B2C9AB;strokeColor=#788AA3;fontColor=#46495D;" vertex="1" parent="1">
          <mxGeometry x="307.5" y="590" width="185" height="90" as="geometry" />
        </mxCell>
        <mxCell id="rkgvcaDkyT0_1fbHDYlR-62" style="edgeStyle=orthogonalEdgeStyle;rounded=0;orthogonalLoop=1;jettySize=auto;html=1;entryX=0.25;entryY=1;entryDx=0;entryDy=0;strokeColor=#788AA3;fontColor=#46495D;fillColor=#B2C9AB;" edge="1" parent="1" source="rkgvcaDkyT0_1fbHDYlR-6" target="rkgvcaDkyT0_1fbHDYlR-3">
          <mxGeometry relative="1" as="geometry" />
        </mxCell>
        <mxCell id="rkgvcaDkyT0_1fbHDYlR-6" value="Stock Reserved&lt;br&gt;&lt;br&gt;(If reserved authorise payment else cancel it)" style="rounded=0;whiteSpace=wrap;html=1;labelBackgroundColor=none;fillColor=#B2C9AB;strokeColor=#788AA3;fontColor=#46495D;" vertex="1" parent="1">
          <mxGeometry x="-215" y="760" width="200" height="80" as="geometry" />
        </mxCell>
        <mxCell id="rkgvcaDkyT0_1fbHDYlR-61" style="edgeStyle=orthogonalEdgeStyle;rounded=0;orthogonalLoop=1;jettySize=auto;html=1;entryX=0.75;entryY=1;entryDx=0;entryDy=0;strokeColor=#788AA3;fontColor=#46495D;fillColor=#B2C9AB;" edge="1" parent="1" source="rkgvcaDkyT0_1fbHDYlR-7" target="rkgvcaDkyT0_1fbHDYlR-3">
          <mxGeometry relative="1" as="geometry" />
        </mxCell>
        <mxCell id="rkgvcaDkyT0_1fbHDYlR-7" value="Payment Captured&lt;div&gt;&lt;br&gt;&lt;div&gt;(If captured finalize order else cancel)&lt;/div&gt;&lt;/div&gt;" style="rounded=0;whiteSpace=wrap;html=1;labelBackgroundColor=none;fillColor=#B2C9AB;strokeColor=#788AA3;fontColor=#46495D;" vertex="1" parent="1">
          <mxGeometry x="310" y="760" width="180" height="80" as="geometry" />
        </mxCell>
        <mxCell id="rkgvcaDkyT0_1fbHDYlR-72" style="edgeStyle=orthogonalEdgeStyle;rounded=0;orthogonalLoop=1;jettySize=auto;html=1;entryX=1;entryY=0.5;entryDx=0;entryDy=0;strokeColor=#788AA3;fontColor=#46495D;fillColor=#B2C9AB;" edge="1" parent="1" source="rkgvcaDkyT0_1fbHDYlR-9" target="rkgvcaDkyT0_1fbHDYlR-1">
          <mxGeometry relative="1" as="geometry">
            <Array as="points">
              <mxPoint x="520" y="-60" />
            </Array>
          </mxGeometry>
        </mxCell>
        <mxCell id="rkgvcaDkyT0_1fbHDYlR-87" style="edgeStyle=orthogonalEdgeStyle;rounded=0;orthogonalLoop=1;jettySize=auto;html=1;exitX=0.25;exitY=0;exitDx=0;exitDy=0;entryX=1;entryY=0.25;entryDx=0;entryDy=0;strokeColor=#788AA3;fontColor=#46495D;fillColor=#B2C9AB;startArrow=classic;startFill=1;endArrow=none;endFill=0;" edge="1" parent="1" source="rkgvcaDkyT0_1fbHDYlR-9" target="rkgvcaDkyT0_1fbHDYlR-75">
          <mxGeometry relative="1" as="geometry" />
        </mxCell>
        <mxCell id="rkgvcaDkyT0_1fbHDYlR-9" value="Notification Service&lt;div&gt;&lt;br&gt;&lt;div&gt;(Send 2-hour pickup reminder before expiry)&lt;/div&gt;&lt;/div&gt;" style="rounded=0;whiteSpace=wrap;html=1;labelBackgroundColor=none;fillColor=#B2C9AB;strokeColor=#788AA3;fontColor=#46495D;" vertex="1" parent="1">
          <mxGeometry x="450" y="380" width="175" height="100" as="geometry" />
        </mxCell>
        <mxCell id="rkgvcaDkyT0_1fbHDYlR-52" style="edgeStyle=orthogonalEdgeStyle;rounded=0;orthogonalLoop=1;jettySize=auto;html=1;exitX=1;exitY=0.5;exitDx=0;exitDy=0;entryX=0;entryY=0.5;entryDx=0;entryDy=0;labelBackgroundColor=none;strokeColor=#788AA3;fontColor=default;startArrow=none;startFill=0;" edge="1" parent="1" source="rkgvcaDkyT0_1fbHDYlR-3" target="rkgvcaDkyT0_1fbHDYlR-5">
          <mxGeometry relative="1" as="geometry" />
        </mxCell>
        <mxCell id="rkgvcaDkyT0_1fbHDYlR-59" style="edgeStyle=orthogonalEdgeStyle;rounded=0;orthogonalLoop=1;jettySize=auto;html=1;entryX=0;entryY=0.5;entryDx=0;entryDy=0;strokeColor=#788AA3;fontColor=#46495D;fillColor=#B2C9AB;startArrow=none;startFill=0;" edge="1" parent="1" source="rkgvcaDkyT0_1fbHDYlR-49" target="rkgvcaDkyT0_1fbHDYlR-9">
          <mxGeometry relative="1" as="geometry" />
        </mxCell>
        <mxCell id="rkgvcaDkyT0_1fbHDYlR-86" style="edgeStyle=orthogonalEdgeStyle;rounded=0;orthogonalLoop=1;jettySize=auto;html=1;entryX=0.75;entryY=0;entryDx=0;entryDy=0;strokeColor=#788AA3;fontColor=#46495D;fillColor=#B2C9AB;startArrow=classic;startFill=1;endArrow=classic;endFill=1;" edge="1" parent="1" source="rkgvcaDkyT0_1fbHDYlR-49" target="rkgvcaDkyT0_1fbHDYlR-4">
          <mxGeometry relative="1" as="geometry" />
        </mxCell>
        <mxCell id="rkgvcaDkyT0_1fbHDYlR-49" value="Message Broker" style="shape=cylinder3;whiteSpace=wrap;html=1;boundedLbl=1;backgroundOutline=1;size=15;labelBackgroundColor=none;fillColor=#B2C9AB;strokeColor=#788AA3;fontColor=#46495D;" vertex="1" parent="1">
          <mxGeometry x="75" y="360" width="150" height="140" as="geometry" />
        </mxCell>
        <mxCell id="rkgvcaDkyT0_1fbHDYlR-64" style="edgeStyle=orthogonalEdgeStyle;rounded=0;orthogonalLoop=1;jettySize=auto;html=1;entryX=0.5;entryY=1;entryDx=0;entryDy=0;entryPerimeter=0;strokeColor=#788AA3;fontColor=#46495D;fillColor=#B2C9AB;startArrow=classic;startFill=1;" edge="1" parent="1" source="rkgvcaDkyT0_1fbHDYlR-3" target="rkgvcaDkyT0_1fbHDYlR-49">
          <mxGeometry relative="1" as="geometry" />
        </mxCell>
        <mxCell id="rkgvcaDkyT0_1fbHDYlR-65" value="Stock Reserved/&lt;br&gt;Failed" style="text;html=1;align=center;verticalAlign=middle;resizable=0;points=[];autosize=1;strokeColor=none;fillColor=none;fontColor=#46495D;" vertex="1" parent="1">
          <mxGeometry x="-5" y="810" width="110" height="40" as="geometry" />
        </mxCell>
        <mxCell id="rkgvcaDkyT0_1fbHDYlR-69" value="Order&lt;br&gt;Placed" style="text;html=1;align=center;verticalAlign=middle;resizable=0;points=[];autosize=1;strokeColor=none;fillColor=none;fontColor=#46495D;" vertex="1" parent="1">
          <mxGeometry x="-15" y="635" width="60" height="40" as="geometry" />
        </mxCell>
        <mxCell id="rkgvcaDkyT0_1fbHDYlR-73" value="Release&lt;br&gt;Stock" style="text;html=1;align=center;verticalAlign=middle;resizable=0;points=[];autosize=1;strokeColor=none;fillColor=none;fontColor=#46495D;" vertex="1" parent="1">
          <mxGeometry x="-20" y="590" width="70" height="40" as="geometry" />
        </mxCell>
        <mxCell id="rkgvcaDkyT0_1fbHDYlR-74" value="Payment Captured/&lt;br&gt;Failed" style="text;html=1;align=center;verticalAlign=middle;resizable=0;points=[];autosize=1;strokeColor=none;fillColor=none;fontColor=#46495D;" vertex="1" parent="1">
          <mxGeometry x="170" y="810" width="130" height="40" as="geometry" />
        </mxCell>
        <mxCell id="rkgvcaDkyT0_1fbHDYlR-83" style="edgeStyle=orthogonalEdgeStyle;rounded=0;orthogonalLoop=1;jettySize=auto;html=1;entryX=0.5;entryY=0;entryDx=0;entryDy=0;strokeColor=#788AA3;fontColor=#46495D;fillColor=#B2C9AB;" edge="1" parent="1" source="rkgvcaDkyT0_1fbHDYlR-75" target="rkgvcaDkyT0_1fbHDYlR-5">
          <mxGeometry relative="1" as="geometry" />
        </mxCell>
        <mxCell id="rkgvcaDkyT0_1fbHDYlR-75" value="Api Gateway" style="rounded=0;whiteSpace=wrap;html=1;strokeColor=#788AA3;fontColor=#46495D;fillColor=#B2C9AB;" vertex="1" parent="1">
          <mxGeometry x="90" y="60" width="120" height="60" as="geometry" />
        </mxCell>
        <mxCell id="rkgvcaDkyT0_1fbHDYlR-78" value="Initiate&lt;br&gt;Order" style="text;html=1;align=center;verticalAlign=middle;resizable=0;points=[];autosize=1;strokeColor=none;fillColor=none;fontColor=#46495D;" vertex="1" parent="1">
          <mxGeometry x="80" y="520" width="60" height="40" as="geometry" />
        </mxCell>
        <mxCell id="rkgvcaDkyT0_1fbHDYlR-79" value="Generate&amp;nbsp;&lt;div&gt;Notification&lt;/div&gt;" style="text;html=1;align=center;verticalAlign=middle;resizable=0;points=[];autosize=1;strokeColor=none;fillColor=none;fontColor=#46495D;" vertex="1" parent="1">
          <mxGeometry x="160" y="520" width="80" height="40" as="geometry" />
        </mxCell>
        <mxCell id="rkgvcaDkyT0_1fbHDYlR-80" value="Authorize&lt;br&gt;Payment" style="text;html=1;align=center;verticalAlign=middle;resizable=0;points=[];autosize=1;strokeColor=none;fillColor=none;fontColor=#46495D;" vertex="1" parent="1">
          <mxGeometry x="237.5" y="595" width="70" height="40" as="geometry" />
        </mxCell>
        <mxCell id="rkgvcaDkyT0_1fbHDYlR-81" value="&lt;font style=&quot;font-size: 21px;&quot;&gt;Architecture Diagram&lt;/font&gt;" style="text;html=1;align=center;verticalAlign=middle;resizable=0;points=[];autosize=1;strokeColor=none;fillColor=none;fontColor=#46495D;strokeWidth=3;" vertex="1" parent="1">
          <mxGeometry x="40" y="-160" width="220" height="40" as="geometry" />
        </mxCell>
        <mxCell id="rkgvcaDkyT0_1fbHDYlR-82" style="edgeStyle=orthogonalEdgeStyle;rounded=0;orthogonalLoop=1;jettySize=auto;html=1;strokeColor=#788AA3;fontColor=#46495D;fillColor=#B2C9AB;" edge="1" parent="1" source="rkgvcaDkyT0_1fbHDYlR-75">
          <mxGeometry relative="1" as="geometry">
            <mxPoint x="-120" y="590" as="targetPoint" />
          </mxGeometry>
        </mxCell>
      </root>
    </mxGraphModel>
  </diagram>
</mxfile>
